<svg xmlns="http://www.w3.org/2000/svg" xmlns:xlink="http://www.w3.org/1999/xlink" width="101" height="26"><defs><path id="a" d="M0 .115h17.048v25.741H0z"/></defs><g fill="none" fill-rule="evenodd"><path fill="#50505F" d="M29.345 11.864c0 1.674 1.105 2.922 2.724 2.922 1.686 0 2.736-1.302 2.736-2.922s-1.05-2.922-2.736-2.922c-1.62 0-2.724 1.248-2.724 2.922m8.393 0c0 3.184-2.2 5.581-5.132 5.581-1.433 0-2.418-.547-3.119-1.379v5.28h-2.845V6.566h2.79V7.74c.7-.876 1.707-1.456 3.163-1.456 2.921 0 5.143 2.396 5.143 5.581m4.057-.001c0 1.62 1.061 2.922 2.736 2.922 1.631 0 2.737-1.248 2.737-2.922 0-1.674-1.106-2.922-2.737-2.922-1.675 0-2.736 1.302-2.736 2.922zm5.384 5.307v-1.17c-.7.864-1.717 1.444-3.174 1.444-2.932 0-5.131-2.397-5.131-5.581 0-3.185 2.2-5.58 5.131-5.58 1.457 0 2.474.579 3.174 1.455V6.567h2.791v10.604h-2.79zm7.372-5.307c0 1.674 1.105 2.922 2.724 2.922 1.686 0 2.736-1.302 2.736-2.922s-1.05-2.922-2.736-2.922c-1.619 0-2.724 1.248-2.724 2.922m8.394 0c0 3.184-2.2 5.581-5.133 5.581-1.433 0-2.418-.547-3.119-1.379v5.28h-2.845V6.566h2.79V7.74c.701-.876 1.708-1.456 3.163-1.456 2.922 0 5.144 2.396 5.144 5.581m4.056-.001c0 1.62 1.062 2.922 2.737 2.922 1.63 0 2.736-1.248 2.736-2.922 0-1.674-1.106-2.922-2.736-2.922-1.675 0-2.737 1.302-2.737 2.922zm5.385 5.307v-1.17c-.7.864-1.718 1.444-3.174 1.444-2.932 0-5.132-2.397-5.132-5.581 0-3.185 2.2-5.58 5.132-5.58 1.456 0 2.473.579 3.174 1.455V6.567h2.79v10.604h-2.79zm7.109-5.471c0 1.531 1.04 2.78 2.67 2.78 1.588 0 2.66-1.205 2.66-2.78 0-1.587-1.072-2.79-2.66-2.79-1.63 0-2.67 1.247-2.67 2.79m5.231-3.95V6.566h2.802v9.525c0 3.415-2.221 5.46-5.723 5.46-1.675 0-3.437-.436-4.64-1.28l1.017-2.33c1.061.7 2.222 1.083 3.502 1.083 1.773 0 3.02-.974 3.02-2.812v-.541c-.733.887-1.783 1.433-3.261 1.433-2.582 0-4.88-2.155-4.88-5.405 0-3.261 2.298-5.417 4.88-5.417 1.488 0 2.55.558 3.283 1.466m7.1 4.116c0 1.718 1.203 2.922 2.812 2.922 1.62 0 2.824-1.204 2.824-2.922 0-1.718-1.204-2.922-2.824-2.922-1.609 0-2.812 1.204-2.812 2.922m8.557 0c0 3.196-2.44 5.581-5.745 5.581-3.294 0-5.723-2.385-5.723-5.581 0-3.196 2.429-5.58 5.723-5.58 3.305 0 5.745 2.384 5.745 5.58"/><g transform="translate(0 .029)"><mask id="b" fill="#fff"><use xlink:href="#a"/></mask><path fill="#00A2FF" d="M17.048 11.935c-1.881 0-5.42.02-5.42.02V.593h-.83C6.331.592 5.041.64 3.032.115c0 0 .044 1.973 2.1 3.045-1.825 1.763-2.366 4.375-2.366 7.1 0 2.726-.255 4.786-.586 6.398C1.444 20.244 0 23.031 0 23.031a8.19 8.19 0 0 0 3.423.091v2.734c7.39 0 13.625-4.346 13.625-12.432v-1.49" mask="url(#b)"/></g><path fill="#FFC600" d="M11.628 9.116v5.4c2.181 0 4.13-.994 5.42-2.553l-5.42-2.847"/><path fill="#FAFDFD" d="M11.628 14.516a5.86 5.86 0 0 1 0-11.72v11.72z"/><path fill="#50505F" d="M10.304 7.761a1.355 1.355 0 1 1-2.71 0 1.355 1.355 0 0 1 2.71 0"/><path fill="#1EDA69" d="M14.986 1.356A7.995 7.995 0 0 0 11.628.62v8.496h8.03V8.65a8.03 8.03 0 0 0-4.672-7.294"/><path fill="#0087FF" d="M9.962 17.754a8.537 8.537 0 0 1-6.537 5.408l-.003 2.72a8.3 8.3 0 0 0 6.55-8.113"/></g></svg>